[
    {
        "start": {
            "timestamp": {
                "n": 0,
                "pts": 0,
                "pts_time": 0
            },
            "event": {
                "type": "start_marker",
                "trial_type": "animation",
                "trial_index": "trial-1-0",
                "trial_id": "undefined"
            }
        },
        "end": {
            "timestamp": {
                "n": 57,
                "pts": 30070000,
                "pts_time": 3.007
            },
            "event": {
                "type": "end_marker",
                "trial_type": "animation",
                "trial_index": "0",
                "time_elapsed": "3006"
            }
        }
    },
    {
        "start": {
            "timestamp": {
                "n": 58,
                "pts": 30600000,
                "pts_time": 3.06
            },
            "event": {
                "type": "start_marker",
                "trial_type": "disks",
                "trial_index": "disk-condition-1-1",
                "trial_id": "trial-1-1"
            }
        },
        "end": {
            "timestamp": {
                "n": 211,
                "pts": 111240000,
                "pts_time": 11.124
            },
            "event": {
                "type": "end_marker",
                "trial_type": "disks",
                "trial_index": "1",
                "time_elapsed": "11120"
            }
        }
    },
    {
        "start": {
            "timestamp": {
                "n": 241,
                "pts": 127050000,
                "pts_time": 12.705
            },
            "event": {
                "type": "start_marker",
                "trial_type": "disks",
                "trial_index": "disk-condition-2-2",
                "trial_id": "trial-1-2"
            }
        },
        "end": {
            "timestamp": {
                "n": 411,
                "pts": 216700000,
                "pts_time": 21.67
            },
            "event": {
                "type": "end_marker",
                "trial_type": "disks",
                "trial_index": "3",
                "time_elapsed": "21672"
            }
        }
    },
    {
        "start": {
            "timestamp": {
                "n": 435,
                "pts": 229340000,
                "pts_time": 22.934
            },
            "event": {
                "type": "start_marker",
                "trial_type": "disks",
                "trial_index": "disk-condition-3-1",
                "trial_id": "trial-1-3"
            }
        },
        "end": {
            "timestamp": {
                "n": 583,
                "pts": 307360000,
                "pts_time": 30.736
            },
            "event": {
                "type": "end_marker",
                "trial_type": "disks",
                "trial_index": "5",
                "time_elapsed": "32049"
            }
        }
    },
    {
        "start": {
            "timestamp": {
                "n": 613,
                "pts": 323260000,
                "pts_time": 32.326
            },
            "event": {
                "type": "start_marker",
                "trial_type": "disks",
                "trial_index": "disk-condition-4-2",
                "trial_id": "trial-1-4"
            }
        },
        "end": {
            "timestamp": {
                "n": 775,
                "pts": 408610000,
                "pts_time": 40.861
            },
            "event": {
                "type": "end_marker",
                "trial_type": "disks",
                "trial_index": "7",
                "time_elapsed": "42481"
            }
        }
    },
    {
        "start": {
            "timestamp": {
                "n": 804,
                "pts": 423880000,
                "pts_time": 42.388
            },
            "event": {
                "type": "start_marker",
                "trial_type": "disks",
                "trial_index": "disk-condition-3-2",
                "trial_id": "trial-1-5"
            }
        },
        "end": {
            "timestamp": {
                "n": 964,
                "pts": 508230000,
                "pts_time": 50.823
            },
            "event": {
                "type": "end_marker",
                "trial_type": "disks",
                "trial_index": "9",
                "time_elapsed": "52842"
            }
        }
    },
    {
        "start": {
            "timestamp": {
                "n": 990,
                "pts": 521930000,
                "pts_time": 52.193
            },
            "event": {
                "type": "start_marker",
                "trial_type": "disks",
                "trial_index": "disk-condition-3-2",
                "trial_id": "trial-1-6"
            }
        },
        "end": {
            "timestamp": {
                "n": 1165,
                "pts": 614220000,
                "pts_time": 61.422
            },
            "event": {
                "type": "end_marker",
                "trial_type": "disks",
                "trial_index": "11",
                "time_elapsed": "62967"
            }
        }
    },
    {
        "start": {
            "timestamp": {
                "n": 1182,
                "pts": 623170000,
                "pts_time": 62.317
            },
            "event": {
                "type": "start_marker",
                "trial_type": "disks",
                "trial_index": "disk-condition-3-1",
                "trial_id": "trial-1-7"
            }
        },
        "end": {
            "timestamp": {
                "n": 1335,
                "pts": 703870000,
                "pts_time": 70.387
            },
            "event": {
                "type": "end_marker",
                "trial_type": "disks",
                "trial_index": "13",
                "time_elapsed": "73031"
            }
        }
    },
    {
        "start": {
            "timestamp": {
                "n": 1358,
                "pts": 715970000,
                "pts_time": 71.597
            },
            "event": {
                "type": "start_marker",
                "trial_type": "disks",
                "trial_index": "disk-condition-3-1",
                "trial_id": "trial-1-8"
            }
        },
        "end": {
            "timestamp": {
                "n": 1516,
                "pts": 799250000,
                "pts_time": 79.925
            },
            "event": {
                "type": "end_marker",
                "trial_type": "disks",
                "trial_index": "15",
                "time_elapsed": "83286"
            }
        }
    },
    {
        "start": {
            "timestamp": {
                "n": 1540,
                "pts": 811920000,
                "pts_time": 81.192
            },
            "event": {
                "type": "start_marker",
                "trial_type": "disks",
                "trial_index": "disk-condition-3-1",
                "trial_id": "trial-1-9"
            }
        },
        "end": {
            "timestamp": {
                "n": 1689,
                "pts": 890490000,
                "pts_time": 89.049
            },
            "event": {
                "type": "end_marker",
                "trial_type": "disks",
                "trial_index": "17",
                "time_elapsed": "93527"
            }
        }
    }
]